<svg width="518" height="660" viewBox="0 0 518 660" fill="none" xmlns="http://www.w3.org/2000/svg">
<path d="M67.4787 745.438C67.4787 745.438 44.3947 625.944 44.3332 601.375C44.2593 567.37 70.3335 553.832 70.3335 553.832L60.2065 525H115.886L107.088 553.636C107.088 553.636 136.436 569.164 132.338 604.433C124.684 670.366 112.502 745.389 112.502 745.389L67.4787 745.438Z" fill="#383669"/>
<path d="M209.857 51.874H-20.5117V465.056H209.857V51.874Z" fill="#504E83"/>
<path d="M198.267 63.8525H-11.3173V452.734H198.267V63.8525Z" fill="#383669"/>
<path d="M219.6 468.763L209.858 465.042V44.8701H219.6V468.763Z" fill="#36346B"/>
<path d="M40.0729 315.049L94.5795 264.541C101.471 258.145 110.493 251.249 119.358 254.392C123.634 255.956 126.845 259.552 131.027 261.288C139.375 264.76 148.93 259.724 155.351 253.376C161.773 247.027 166.848 239.052 174.632 234.439C182.417 229.826 194.508 230.405 198.361 238.583V293.563L119.17 327.371L40.0729 315.049Z" fill="#423F76"/>
<path d="M-11.3173 283.445C8.74681 275.298 28.7639 282.226 43.1111 298.41C46.134 301.819 48.8906 305.759 53.0413 307.636C58.6642 310.185 65.1643 308.277 71.2885 307.636C79.7157 306.806 88.2086 308.319 95.829 312.005C103.449 315.692 109.901 321.41 114.471 328.527L47.4967 361.365L-11.3173 360.943V283.445Z" fill="#8689AA"/>
<path d="M198.283 283.696C185.063 277.332 173.441 285.026 161.256 293.188C149.07 301.351 137.762 311.796 123.446 315.08C113.891 317.269 103.648 316.05 94.4225 319.334C75.6271 326.026 64.6631 349.873 44.787 351.014C33.964 351.64 24.253 345.088 14.589 340.162C4.92507 335.237 -2.64006 330.577 -11.3173 337.16V452.734H198.283V283.696Z" fill="#6E7191"/>
<path d="M172.422 183.606C176.77 165.038 165.218 146.466 146.62 142.125C128.022 137.783 109.42 149.316 105.071 167.884C100.723 186.452 112.274 205.024 130.873 209.365C149.471 213.707 168.073 202.174 172.422 183.606Z" fill="#747799"/>
<path d="M202.825 175.722H-11.3173V179.866H202.825V175.722Z" fill="#504E83"/>
<path d="M202.825 268.323H-11.3173V272.467H202.825V268.323Z" fill="#504E83"/>
<path d="M202.825 360.943H-11.3173V365.087H202.825V360.943Z" fill="#6E7191"/>
<path d="M88.1882 177.786V463.759H98.7763V177.786H88.1882Z" fill="#504E83"/>
<path d="M33.8388 63.8525H29.046V177.801H33.8388V63.8525Z" fill="#504E83"/>
<path d="M75.2202 63.8525H70.4274V177.801H75.2202V63.8525Z" fill="#504E83"/>
<path d="M116.585 63.8525H111.793V177.801H116.585V63.8525Z" fill="#504E83"/>
<path d="M157.966 63.8525H153.173V177.801H157.966V63.8525Z" fill="#504E83"/>
<path d="M219.6 40.6001H-30.2688V51.8745H219.6V40.6001Z" fill="#36346B"/>
<path d="M226.194 470.153H-37.1766V480.661H226.194V470.153Z" fill="#6E7191"/>
<path d="M209.858 465.039L226.194 470.152H-37.1766L-20.5271 465.039H209.858Z" fill="#504E83"/>
<path d="M146.176 273.992C137.922 275.305 134.225 285.454 134.946 293.789C135.666 302.123 139.096 310.255 138.172 318.574C137.013 329.129 129.025 338.042 128.086 348.628C126.989 361.138 135.823 372.162 138.47 384.406C139.754 390.364 139.566 396.65 141.79 402.326C143.678 407.162 147.187 411.194 151.721 413.734C156.254 416.273 161.53 417.163 166.647 416.251C171.765 415.339 176.407 412.683 179.78 408.734C183.154 404.786 185.05 399.791 185.145 394.602C185.333 385.016 179.413 375.993 180.133 366.455C180.666 359.387 184.832 352.694 183.923 345.673C182.874 337.307 175.105 331.38 172.364 323.405C169.623 315.431 172.27 306.658 171.315 298.276C169.623 283.249 161.275 272.772 146.176 273.992Z" fill="#05C168"/>
<path d="M103.964 346.659C102.554 360.591 108.663 376.964 115.883 388.989C123.151 401.08 134.084 410.548 147.099 416.025C148.556 416.635 150.373 417.151 151.61 416.166C152.046 415.686 152.372 415.117 152.567 414.499C152.762 413.881 152.82 413.228 152.738 412.585C152.835 397.81 148.136 383.401 139.343 371.516C130.55 359.631 118.138 350.91 103.964 346.659Z" fill="#05C168"/>
<g opacity="0.1">
<path opacity="0.1" d="M103.964 346.658C102.554 360.591 108.663 376.963 115.883 388.988C123.151 401.079 134.084 410.548 147.099 416.025C148.556 416.635 150.373 417.151 151.61 416.166C152.046 415.685 152.372 415.117 152.567 414.498C152.762 413.88 152.82 413.227 152.738 412.585C152.835 397.81 148.136 383.4 139.343 371.515C130.55 359.631 118.138 350.909 103.964 346.658Z" fill="black"/>
</g>
<path d="M164.704 445.141C164.536 444.899 164.399 444.636 164.297 444.359L163.31 442.076C162.464 440.09 161.211 437.229 159.629 433.726C151.327 415.402 141.132 397.992 129.212 381.779C126.941 378.652 125.062 376.181 123.73 374.477L122.164 372.491C121.98 372.267 121.818 372.026 121.678 371.771C121.678 371.771 121.913 371.959 122.289 372.397L123.856 374.289C125.265 375.931 127.207 378.37 129.557 381.451C141.79 397.519 152.054 414.99 160.131 433.491C161.697 437.041 162.84 439.934 163.592 441.967L164.454 444.312C164.565 444.579 164.649 444.857 164.704 445.141Z" fill="#EFF0F7"/>
<path d="M155.745 312.428C155.821 312.873 155.868 313.322 155.886 313.773C155.964 314.711 156.058 315.993 156.168 317.604C156.387 321.013 156.7 325.813 157.076 331.677C157.828 343.593 158.893 360.043 160.209 378.198C161.524 396.353 162.762 412.819 163.686 424.718C164.14 430.614 164.5 435.399 164.767 438.792C164.876 440.356 164.955 441.685 165.017 442.623C165.059 443.07 165.059 443.521 165.017 443.968C164.914 443.531 164.845 443.086 164.814 442.639C164.72 441.7 164.579 440.418 164.406 438.823C164.093 435.414 163.639 430.629 163.075 424.75C162.01 412.85 160.663 396.415 159.379 378.245C158.094 360.074 157.123 343.608 156.512 331.693C156.246 325.782 156.027 320.981 155.854 317.619C155.854 316.056 155.76 314.726 155.729 313.773C155.697 313.325 155.703 312.875 155.745 312.428Z" fill="#EFF0F7"/>
<path d="M143.238 431.6C143.055 428.166 145.79 425.281 149.229 425.281H171.814C175.128 425.281 177.814 427.968 177.814 431.281V450.879C177.814 455.317 176.048 459.573 172.905 462.71C169.762 465.848 165.5 467.611 161.055 467.611C156.764 467.609 152.637 465.966 149.523 463.02C146.409 460.074 144.544 456.048 144.311 451.771L143.238 431.6Z" fill="#312E72"/>
<path d="M177.97 437.48C177.97 437.48 177.532 437.23 176.686 436.948C175.496 436.593 174.235 436.544 173.021 436.808C171.207 437.254 169.439 437.872 167.743 438.653C166.676 439.087 165.561 439.392 164.422 439.56C163.188 439.707 161.938 439.643 160.726 439.372C158.467 438.786 156.245 438.071 154.069 437.23C152.321 436.616 150.469 436.351 148.618 436.448C147.383 436.513 146.185 436.896 145.141 437.558C144.405 438.059 144.092 438.45 144.029 438.403C144.232 437.966 144.545 437.589 144.938 437.308C145.992 436.502 147.25 436.004 148.571 435.869C150.506 435.686 152.458 435.905 154.304 436.511C156.371 437.136 158.533 438.074 160.882 438.575C162.012 438.827 163.176 438.896 164.328 438.778C165.399 438.615 166.449 438.337 167.461 437.949C169.207 437.178 171.036 436.606 172.911 436.245C174.219 436.02 175.563 436.161 176.796 436.651C177.673 437.042 178.002 437.449 177.97 437.48Z" fill="#DCDDEB"/>
<path d="M177.971 440.467C177.971 440.467 177.533 440.217 176.687 439.935C175.486 439.557 174.208 439.493 172.975 439.747C171.159 440.186 169.39 440.804 167.697 441.593C166.628 442.02 165.514 442.324 164.376 442.5C163.142 442.64 161.893 442.576 160.68 442.312C158.423 441.714 156.201 440.994 154.023 440.154C152.275 439.541 150.423 439.275 148.572 439.372C147.335 439.441 146.137 439.829 145.095 440.498C144.359 440.983 144.046 441.374 143.983 441.327C144.186 440.89 144.499 440.513 144.892 440.232C145.944 439.425 147.204 438.932 148.525 438.809C150.46 438.61 152.415 438.829 154.258 439.45C156.325 440.06 158.487 441.014 160.836 441.514C161.967 441.762 163.131 441.825 164.282 441.702C165.355 441.556 166.406 441.283 167.415 440.889C169.164 440.12 170.991 439.543 172.865 439.169C174.173 438.944 175.517 439.085 176.75 439.575C177.237 439.743 177.663 440.054 177.971 440.467Z" fill="#DCDDEB"/>
<path d="M149.136 442.171C149.136 442.28 148.87 442.421 148.776 442.827C148.682 443.234 148.854 443.719 149.434 443.625C150.013 443.531 150.045 443.031 149.81 442.655C149.575 442.28 149.262 442.264 149.246 442.155C149.23 442.046 149.685 441.811 150.233 442.264C150.388 442.405 150.507 442.58 150.581 442.776C150.654 442.972 150.68 443.183 150.656 443.39C150.608 443.659 150.476 443.905 150.279 444.093C150.082 444.281 149.83 444.402 149.559 444.438C149.289 444.488 149.011 444.451 148.763 444.333C148.516 444.215 148.312 444.022 148.181 443.781C148.093 443.59 148.054 443.38 148.067 443.169C148.081 442.959 148.147 442.756 148.259 442.577C148.635 441.983 149.168 442.061 149.136 442.171Z" fill="#DCDDEB"/>
<path d="M161.775 435.524C161.665 435.524 161.932 434.993 162.637 435.102C162.849 435.147 163.042 435.257 163.188 435.417C163.334 435.577 163.426 435.778 163.451 435.994C163.484 436.26 163.426 436.53 163.286 436.759C163.146 436.988 162.932 437.163 162.68 437.256C162.427 437.348 162.151 437.353 161.896 437.268C161.64 437.184 161.421 437.016 161.274 436.791C161.159 436.614 161.098 436.408 161.098 436.197C161.098 435.986 161.159 435.78 161.274 435.603C161.65 435.024 162.135 435.102 162.135 435.212C162.135 435.321 161.885 435.478 161.791 435.837C161.77 435.925 161.771 436.016 161.793 436.103C161.814 436.19 161.857 436.27 161.916 436.338C161.983 436.409 162.067 436.461 162.161 436.488C162.255 436.516 162.354 436.518 162.449 436.494C162.535 436.458 162.61 436.397 162.662 436.319C162.715 436.241 162.744 436.15 162.746 436.056C162.752 435.973 162.732 435.89 162.691 435.817C162.649 435.745 162.586 435.687 162.511 435.65C162.135 435.478 161.853 435.603 161.775 435.524Z" fill="#DCDDEB"/>
<path d="M174.007 441.968C174.007 441.874 174.477 441.671 175.025 442.187C175.188 442.346 175.303 442.548 175.355 442.769C175.408 442.991 175.397 443.222 175.323 443.438C175.247 443.724 175.076 443.975 174.837 444.151C174.598 444.326 174.306 444.415 174.01 444.402C173.714 444.389 173.431 444.276 173.208 444.081C172.986 443.885 172.837 443.62 172.786 443.328C172.735 443.099 172.758 442.859 172.851 442.644C172.943 442.428 173.101 442.246 173.302 442.124C173.976 441.733 174.43 442.124 174.336 442.202C174.242 442.281 173.945 442.202 173.647 442.578C173.574 442.65 173.524 442.741 173.501 442.841C173.479 442.941 173.486 443.045 173.522 443.141C173.561 443.252 173.63 443.35 173.721 443.424C173.812 443.499 173.922 443.547 174.039 443.563C174.162 443.559 174.282 443.52 174.385 443.451C174.487 443.382 174.568 443.285 174.618 443.172C174.668 443.075 174.693 442.968 174.693 442.859C174.693 442.75 174.668 442.643 174.618 442.546C174.352 442.171 173.992 442.093 174.007 441.968Z" fill="#DCDDEB"/>
<path d="M388.192 138.563L354.927 138.87L355.234 172.081L388.5 171.774L388.192 138.563Z" fill="#4E4B88"/>
<path d="M388.132 147.025C382.682 147.535 377.207 147.738 371.734 147.634C366.261 147.833 360.781 147.735 355.318 147.338C360.769 146.839 366.243 146.635 371.717 146.73C377.19 146.531 382.67 146.629 388.132 147.025Z" fill="#7976AB"/>
<path d="M378.042 157.326C377.886 156.853 377.758 156.371 377.659 155.882C377.263 154.607 376.462 153.496 375.376 152.716C374.585 152.16 373.669 151.806 372.709 151.684C371.749 151.563 370.774 151.678 369.869 152.02C368.756 152.434 367.798 153.183 367.128 154.163C366.458 155.143 366.108 156.306 366.127 157.492C366.147 158.678 366.533 159.83 367.235 160.788C367.936 161.746 368.917 162.463 370.044 162.841C370.955 163.165 371.931 163.262 372.888 163.122C373.845 162.983 374.753 162.612 375.533 162.041C376.606 161.245 377.389 160.121 377.763 158.84C377.855 158.347 377.971 157.859 378.112 157.378C378.24 157.887 378.24 158.419 378.112 158.927C377.847 160.356 377.074 161.641 375.934 162.546C375.084 163.231 374.073 163.689 372.997 163.878C371.921 164.067 370.815 163.979 369.782 163.624C368.501 163.184 367.387 162.358 366.596 161.26C365.804 160.163 365.373 158.847 365.361 157.494C365.35 156.141 365.759 154.818 366.532 153.706C367.305 152.595 368.404 151.751 369.678 151.289C370.705 150.92 371.809 150.815 372.887 150.986C373.966 151.156 374.984 151.596 375.847 152.263C376.998 153.154 377.795 154.424 378.095 155.847C378.201 156.337 378.183 156.845 378.042 157.326Z" fill="#7976AB"/>
<path d="M517.122 171.87H308.163V182.518H517.122V171.87Z" fill="#36346B"/>
<path d="M481.851 179.981H475.943V214.933H481.851V179.981Z" fill="#36346B"/>
<path d="M350.055 179.455H343.973V215.468H350.055V179.455Z" fill="#36346B"/>
<path d="M406.134 0.694336C409.684 0.976536 413.141 1.97104 416.297 3.61814C419.453 5.26534 422.243 7.53134 424.501 10.2805C428.985 15.822 432.139 22.315 433.72 29.2616C437.205 42.5535 434.853 58.1767 430.949 71.3295C416.607 66.1101 407.877 50.6957 403.938 42.6231C397.717 29.8531 394.232 2.99084 406.134 0.694336Z" fill="#05C168"/>
<path d="M451.493 87.58C449.371 84.219 448.173 80.3587 448.02 76.3882C447.867 72.4178 448.765 68.4771 450.622 64.963C452.55 61.488 455.152 58.4308 458.276 55.9696C461.399 53.5084 464.982 51.6923 468.815 50.6272C472.301 49.5833 476.413 49.1658 479.445 51.2187C480.802 52.2763 481.854 53.6739 482.493 55.2691C483.133 56.8644 483.338 58.6003 483.087 60.3004C482.513 63.6944 481.059 66.8792 478.87 69.5386C471.795 78.9161 463.187 86.71 451.493 87.58Z" fill="#05C168"/>
<path d="M436.265 101.654C431.794 94.548 425.689 88.611 418.458 84.335C411.226 80.0594 403.076 77.569 394.686 77.071C390.416 76.8622 385.328 77.68 383.516 81.5249C381.703 85.37 384.335 89.841 387.28 92.92C393.574 99.223 401.597 103.523 410.337 105.278C419.076 107.034 428.141 106.166 436.387 102.785" fill="#05C168"/>
<path d="M451.615 133.163C451.331 132.244 451.133 131.3 451.023 130.345C450.709 128.605 450.291 125.891 449.838 122.603C448.521 114.041 448.328 105.344 449.263 96.732C450.293 88.07 453.626 79.84 458.917 72.8972C460.537 70.8232 462.403 68.9536 464.476 67.3299C465.19 66.7384 465.835 66.373 466.218 66.0947C466.42 65.9364 466.643 65.8075 466.881 65.7119C464.129 67.9536 461.633 70.4917 459.44 73.28C454.399 80.2368 451.22 88.363 450.204 96.889C449.306 105.42 449.417 114.028 450.535 122.533C450.901 125.7 451.197 128.309 451.423 130.293C451.556 131.244 451.62 132.203 451.615 133.163Z" fill="#DCDDEB"/>
<path d="M410.593 20.9116C410.809 21.2611 410.995 21.6277 411.151 22.0077L412.597 25.2263C413.835 28.0099 415.595 32.081 417.703 37.1264C421.938 47.1997 427.601 61.205 433.509 76.8108C439.416 92.417 444.453 106.665 447.955 117.035C449.698 122.254 451.092 126.412 452.016 129.335C452.434 130.727 452.782 131.84 453.061 132.693C453.203 133.075 453.302 133.472 453.358 133.876C453.155 133.519 452.997 133.14 452.887 132.745C452.573 131.91 452.173 130.814 451.685 129.439L447.345 117.261C443.703 106.961 438.632 92.747 432.672 77.1588C426.713 61.5703 421.189 47.5825 417.111 37.3874L412.266 25.4003C411.743 24.0432 411.308 22.9472 410.977 22.1121C410.804 21.7278 410.675 21.325 410.593 20.9116Z" fill="#DCDDEB"/>
<path d="M401.41 88.0319C402.331 88.0159 403.251 88.0739 404.163 88.2059C405.236 88.2699 406.302 88.4149 407.352 88.6409C408.767 88.8769 410.168 89.1849 411.552 89.5629L413.957 90.2239C414.793 90.4679 415.699 90.8159 416.518 91.1289C418.394 91.8019 420.232 92.5739 422.025 93.4429C426.108 95.4869 429.968 97.9469 433.544 100.785C437.118 103.717 440.366 107.024 443.233 110.649C444.453 112.223 445.587 113.86 446.631 115.555C447.119 116.356 447.624 117.104 448.025 117.869L449.175 120.079C449.822 121.353 450.404 122.66 450.918 123.993C451.347 124.976 451.708 125.988 451.998 127.02C452.309 127.888 452.554 128.778 452.73 129.682C452.521 129.682 451.51 125.942 448.583 120.375L447.398 118.217C446.997 117.469 446.474 116.738 445.986 115.955C445.028 114.372 443.791 112.824 442.501 111.154C436.877 104.085 429.776 98.3259 421.694 94.2779C419.812 93.4079 418.052 92.5379 416.292 91.9119C415.438 91.5989 414.549 91.2329 413.8 90.9719L411.43 90.2589C405.4 88.5019 401.41 88.2929 401.41 88.0319Z" fill="#DCDDEB"/>
<path d="M424.326 120.322H475.96V150.49C475.96 153.298 475.406 156.078 474.33 158.673C473.254 161.267 471.676 163.624 469.688 165.609C467.699 167.595 465.338 169.17 462.739 170.244C460.141 171.319 457.356 171.872 454.543 171.872H445.743C440.063 171.872 434.616 169.619 430.599 165.609C426.583 161.6 424.326 156.161 424.326 150.49V120.322Z" fill="#615F91"/>
<path d="M506.278 240.117C505.787 240.691 505.091 241.049 504.339 241.117C503.587 241.184 502.838 240.955 502.253 240.478L414.805 168.02L418.469 163.641L505.87 236.117C506.451 236.596 506.819 237.285 506.896 238.034C506.972 238.782 506.75 239.531 506.278 240.117Z" fill="#7876B4"/>
<path d="M441.78 186.62C441.78 186.62 436.449 200.162 430.988 199.602C425.527 199.042 424.043 190.321 424.043 190.321C424.043 190.321 419.545 198.075 414.897 194.334C410.248 190.593 411.477 181.373 411.477 181.373C411.477 181.373 403.806 186.16 401.151 182.039C397.51 176.362 408.483 166.749 408.483 166.749C408.483 166.749 416.415 145.522 422.308 146.043C427.165 146.458 426.099 154.511 426.099 154.511C426.099 154.511 430.068 148.909 434.882 148.828C439.696 148.747 437.871 160.67 437.871 160.67C437.871 160.67 446.371 155.404 449.307 159.961C452.243 164.517 443.662 171.573 443.662 171.573C443.662 171.573 454.987 168.81 453.869 175.29C452.751 181.769 441.78 186.62 441.78 186.62Z" fill="#4B3CFB"/>
<path d="M412.851 131.09C408.263 127.281 402.086 132.278 402.086 132.278C402.086 132.278 403.431 126.43 400.497 124.898C394.526 121.743 387.848 135.116 387.848 135.116C387.848 135.116 369.447 142.344 369.25 148.275C369.053 154.206 376.913 153.527 376.913 153.527C375.896 154.51 375.13 155.723 374.68 157.063C374.231 158.403 374.11 159.831 374.329 161.227C375.131 165.946 386.566 161.939 386.566 161.939C386.566 161.939 382.958 171.254 387.967 173.303C391.542 174.768 395.281 170.273 397.149 167.55C395.787 170.085 394.186 174.482 397.666 177.175C399.349 178.501 401.947 176.463 404.523 173.429C404.765 174.157 405.211 174.799 405.808 175.281C406.406 175.762 407.129 176.062 407.892 176.145C411.969 176.747 414.839 169.579 414.687 164.953C418.906 164.003 423.005 162.304 421.938 159.24C421.51 158.18 420.846 157.233 419.995 156.469C419.144 155.706 418.129 155.148 417.028 154.837C419.688 150.657 422.436 145.426 421.585 142.495C420.059 137.187 413.115 142.9 413.115 142.9C413.115 142.9 417.439 134.898 412.851 131.09Z" fill="white"/>
<path d="M375.076 108.854C375.076 108.854 375.185 101.287 370.105 99.1139C365.025 96.9399 359.963 108.891 359.963 108.891C359.963 108.891 347.932 106.318 344.828 112.115C341.723 117.913 349.246 123.864 349.246 123.864C349.246 123.864 343.192 126.65 344.586 131.901C345.98 137.151 355.697 134.748 355.697 134.748C355.697 134.748 350.219 145.563 354.791 146.976C359.363 148.388 365.16 142.929 365.16 142.929C365.16 142.929 362.164 151.938 368.061 152.523C370.67 152.785 373.53 149.334 375.929 145.409C376.52 146.407 377.448 147.161 378.547 147.536C379.645 147.91 380.842 147.881 381.921 147.453C388.566 144.861 384.854 137.868 384.854 137.868C384.854 137.868 399.053 135.515 398.329 130.437C398.036 128.281 395.617 127.639 392.939 127.589C395.9 125.114 397.945 122.398 396.72 119.986C394.177 114.652 384.772 118.647 384.772 118.647C384.772 118.647 389.592 113.289 386.422 108.278C383.252 103.268 375.076 108.854 375.076 108.854Z" fill="#4B3CFB"/>
<path d="M502.189 232.822C502.189 232.822 504.544 232.347 505.496 233.321C507.566 235.458 504.14 238.332 504.14 238.332C500.793 241.558 497.274 244.603 493.601 247.453C493.601 247.453 437.24 318.519 426.344 323.269C417.684 327.188 365.701 326.428 345.455 325.977L326.732 387.732L342.148 446.969L238.849 448.322L263.068 388.634L259.119 374.81L250.03 356.142C227.881 405.522 212.536 482.834 207.207 509.175L207.588 511.55C207.736 515.602 208.294 519.628 209.253 523.568C209.717 525.545 210.522 527.425 211.632 529.126C212.877 531.31 214.423 533.309 216.224 535.064C216.602 535.351 216.886 535.744 217.038 536.193C217.191 536.642 217.206 537.126 217.08 537.583C216.955 538.041 216.695 538.45 216.335 538.759C215.974 539.068 215.53 539.262 215.058 539.316C212.964 539.221 207.873 535.373 204.519 528.746C201.164 522.12 198.666 533.568 197.667 537.701C196.668 541.834 193.028 554.541 191.505 555.253C189.269 556.275 187.746 554.161 188.841 549.98C189.935 545.8 192.243 533.283 190.078 532.855C187.913 532.428 183.155 553.638 183.155 553.638C183.155 553.638 182.869 558.317 180.3 557.937C175.637 557.225 182.322 535.064 183.012 532.974C183.44 531.501 181.085 531.003 180.633 532.57C180.181 534.138 176.398 553.804 171.64 553.139C168 552.617 176.969 534.874 175.494 530.361C174.019 525.849 170.07 544.517 166.596 543.876C165.311 543.639 164.384 543.282 168.214 532.879C171.515 525.031 175.231 517.364 179.348 509.911C184.796 453.382 215.677 352.745 229.309 310.229C231.353 303.862 235.111 298.178 240.17 293.796C245.23 289.415 251.398 286.506 258 285.385C272.582 282.971 287.328 281.677 302.109 281.513C307.961 281.442 309.008 280.611 314.884 280.349C319.533 280.31 324.178 280.627 328.778 281.299C342.315 282.725 409.786 289.684 413.14 286.501C416.899 282.962 468.811 233.249 468.811 233.249H469.001C470.35 229.76 471.424 226.17 472.213 222.514C472.644 220.548 472.733 218.523 472.474 216.528C472.268 214.023 471.708 211.56 470.809 209.213C469.786 207.146 471.784 204.914 473.664 205.864C475.543 206.814 478.541 212.419 478.779 219.853C479.017 227.288 488.747 214.628 488.747 214.628C490.981 213.464 495.08 213.355 493.601 222.229C495.132 222.184 496.655 222.459 498.073 223.036C498.299 223.143 498.487 223.316 498.61 223.533C498.734 223.75 498.787 223.999 498.763 224.247C498.625 225.368 498.625 226.5 498.763 227.62C498.763 227.62 501.761 227.359 502.189 228.689C502.425 230.057 502.425 231.454 502.189 232.822Z" fill="#FFBE9D"/>
<path d="M234.304 404.216C237.302 394.003 252.695 343.507 252.695 343.507C252.695 343.507 260.26 384.669 258.262 389.633C256.423 393.882 254.252 397.98 251.767 401.889C234.304 428.419 236.588 441.697 236.588 441.697L342.1 438.49C342.338 423.764 333.607 389.514 331.799 384.051C329.991 378.588 336.01 360.703 336.01 360.703C336.01 360.703 347.905 348.613 347.477 342.39C347.251 336.8 346.559 331.239 345.407 325.764L409.642 328.139L407.62 284.673L315.36 275.458C312.148 284.507 283.099 280.065 283.099 280.065C251.743 281.11 249.792 286.858 236.755 296.977C223.717 307.095 202.139 393.932 202.139 393.932L234.304 404.216Z" fill="#0075FF"/>
<path d="M296.684 393.932C294.856 394.258 292.993 394.354 291.141 394.217C287.691 394.217 282.957 393.979 277.747 393.457C272.536 392.934 267.826 392.198 264.471 391.533C262.622 391.295 260.808 390.832 259.071 390.155C260.931 390.156 262.787 390.331 264.614 390.678C267.992 391.105 272.679 391.699 277.866 392.222C283.052 392.744 287.762 393.1 291.165 393.338C293.019 393.361 294.867 393.56 296.684 393.932Z" fill="white"/>
<path d="M303.916 384.977C302.087 385.871 300.153 386.533 298.159 386.948C288.667 389.438 278.874 390.597 269.062 390.392C267.032 390.458 265.002 390.266 263.02 389.822C265.023 389.569 267.043 389.466 269.062 389.513C272.798 389.394 277.936 389.133 283.599 388.468C289.261 387.803 294.304 386.853 297.873 386.093C299.855 385.564 301.876 385.191 303.916 384.977Z" fill="white"/>
<path d="M339.413 345.024C339.365 346.835 339.117 348.635 338.675 350.392C338.057 353.693 337.105 358.206 335.892 363.147C334.679 368.087 333.513 372.647 332.466 375.735C332.045 377.503 331.422 379.216 330.61 380.842C330.743 379.036 331.078 377.252 331.61 375.521C332.514 371.816 333.537 367.541 334.679 362.862C335.821 358.182 336.915 353.907 337.819 350.202C338.141 348.418 338.676 346.68 339.413 345.024Z" fill="white"/>
<path d="M235.423 398.158C229.919 397.309 224.488 396.047 219.174 394.381C213.745 393.114 208.417 391.446 203.234 389.393C208.736 390.255 214.166 391.518 219.483 393.17C224.914 394.433 230.242 396.1 235.423 398.158Z" fill="white"/>
<path d="M346.55 325.241C345.652 325.395 344.735 325.395 343.838 325.241C341.353 324.987 338.913 324.404 336.581 323.507C332.69 322.047 329.147 319.79 326.18 316.882C323.214 313.974 320.89 310.478 319.357 306.62C317.663 302.375 316.939 297.807 317.24 293.247C317.346 289.487 318.472 285.826 320.499 282.654C321.924 280.518 324.054 278.946 326.518 278.212C327.176 278.031 327.857 277.943 328.54 277.951C329.016 277.951 329.254 277.951 329.254 277.951C329.254 277.951 328.255 277.951 326.661 278.593C324.4 279.426 322.483 280.989 321.213 283.034C317.977 288.117 317.073 297.404 320.523 306.073C322.128 310.161 324.642 313.832 327.874 316.809C330.522 319.246 333.573 321.206 336.891 322.605C340.004 323.833 343.243 324.717 346.55 325.241Z" fill="white"/>
<path d="M402.007 327.284C401.412 320.001 401.221 312.69 401.436 305.385C401.25 298.087 401.472 290.783 402.102 283.51C402.698 290.785 402.888 298.088 402.673 305.385C402.873 312.692 402.651 320.004 402.007 327.284Z" fill="white"/>
<path d="M314.741 278.118C315.002 272.822 315.55 266.836 315.55 266.836C315.55 266.836 328.682 265.387 329.467 251.849C330.252 238.31 329.467 207.076 329.467 207.076L305.676 194.916L279.269 215.651L283.337 283.344L307.556 284.888C309.407 284.939 311.203 284.255 312.55 282.986C313.897 281.717 314.685 279.966 314.741 278.118Z" fill="#FFBE9D"/>
<path d="M317.097 241.136C317.097 241.136 317.097 241.398 316.883 241.706C316.706 241.93 316.477 242.108 316.216 242.224C315.955 242.34 315.669 242.39 315.384 242.371C313.862 242.371 312.387 240.614 311.863 238.571C311.615 237.581 311.615 236.545 311.863 235.555C311.912 235.123 312.068 234.709 312.318 234.353C312.567 233.996 312.901 233.707 313.291 233.512C313.611 233.38 313.97 233.38 314.29 233.512C314.527 233.63 314.719 233.821 314.837 234.058C315.004 234.462 314.837 234.723 314.837 234.7C314.837 234.676 314.837 234.462 314.599 234.225C314.475 234.054 314.292 233.936 314.086 233.892C313.879 233.849 313.664 233.882 313.481 233.987C313.189 234.163 312.947 234.41 312.776 234.705C312.606 235 312.513 235.333 312.506 235.673C312.305 236.557 312.305 237.474 312.506 238.357C312.981 240.21 314.266 241.706 315.408 241.849C315.632 241.879 315.859 241.863 316.076 241.802C316.293 241.741 316.495 241.635 316.669 241.493C316.955 241.303 317.05 241.113 317.097 241.136Z" fill="#EB996E"/>
<path d="M337.628 199.759C335.796 193.536 329.158 190.449 323.115 188.739C313.908 186.126 303.964 184.986 294.971 188.287C285.978 191.589 275.177 197.384 275.177 207.289C269.872 206.861 266.826 211.493 264.733 217.241C263.394 220.743 262.592 224.426 262.354 228.167C261.688 241.135 258.048 259.044 249.626 268.545C244.868 273.842 238.277 277.499 235.565 284.102C233.186 289.827 234.423 296.62 232.211 302.415C230.236 307.522 225.882 311.156 222.695 315.597C219.447 320.636 217.535 326.416 217.14 332.395C216.745 338.374 217.878 344.355 220.434 349.776C223.009 355.058 226.634 359.762 231.088 363.6C235.542 367.439 240.732 370.332 246.343 372.103C257.455 375.478 269.306 375.594 280.482 372.435C288.87 370.433 296.695 366.56 303.369 361.106C310.198 355.538 314.888 347.785 316.644 339.159C318.333 329.468 315.621 319.611 313.599 309.968C307.271 279.494 309.079 277.903 317.073 249.615C317.263 249.116 317.358 248.593 317.501 248.095C317.644 247.596 317.715 247.358 317.81 246.978C318.037 245.86 318.157 244.723 318.167 243.582C316.999 244.015 315.732 244.107 314.514 243.846C313.296 243.585 312.178 242.983 311.291 242.109C310.403 241.178 309.783 240.024 309.498 238.769C309.213 237.515 309.274 236.206 309.674 234.983C310.235 233.646 311.071 232.441 312.129 231.447C313.186 230.453 314.441 229.691 315.812 229.212C318.452 228.119 321.284 227.549 323.877 226.338C329.372 223.725 333.179 218.31 335.772 212.633C337.904 208.699 338.562 204.134 337.628 199.759Z" fill="#6E7191"/>
<path d="M236.589 441.695L342.101 438.489L388.017 617.435L379.572 822.699H323.782L330.61 621.806L289.809 497.227L296.09 830.656L239.706 831.487L233.782 518.081C233.52 509.364 230.665 489.721 231.736 481.076L236.589 441.695Z" fill="#6E7191"/>
<path d="M303.845 499.768C302.118 499.876 300.384 499.773 298.682 499.459C295.494 499.079 291.141 498.414 286.359 497.464C281.577 496.514 277.294 495.421 274.202 494.543C272.548 494.18 270.949 493.605 269.443 492.832C269.443 492.476 277.199 494.329 286.715 496.253C296.232 498.177 303.892 499.412 303.845 499.768Z" fill="#A0A3BD"/>
<path d="M288.31 821.133C287.977 821.133 286.502 748.287 285.003 658.433C283.505 568.58 282.624 495.686 282.934 495.686C283.243 495.686 284.766 568.509 286.241 658.41C287.716 748.31 288.667 821.133 288.31 821.133Z" fill="#A0A3BD"/>
<path d="M371.507 811.441C371.481 811.117 371.481 810.792 371.507 810.468V807.617C371.507 805.052 371.697 801.371 371.84 796.691C372.173 787.191 372.649 773.391 373.244 756.48C374.528 722.467 376.336 675.581 378.311 623.825C378.311 623.327 378.311 622.852 378.311 622.424V622.59C365.821 572.711 354.52 527.44 346.312 494.687L336.796 455.947C335.702 451.411 334.869 447.872 334.274 445.402C333.989 444.238 333.798 443.335 333.632 442.646C333.539 442.337 333.483 442.018 333.465 441.696C333.589 441.996 333.685 442.306 333.751 442.623C333.941 443.288 334.179 444.19 334.512 445.33C335.155 447.706 336.082 451.316 337.272 455.829C339.651 464.997 343.005 478.203 347.193 494.473C355.472 527.203 366.891 572.355 379.548 622.305V622.472C379.548 622.899 379.548 623.398 379.548 623.873C377.431 675.628 375.504 722.491 374.1 756.503C373.363 773.438 372.744 787.143 372.316 796.691C372.078 801.442 371.887 805.052 371.769 807.617C371.769 808.829 371.626 809.779 371.602 810.468C371.606 810.795 371.574 811.121 371.507 811.441Z" fill="#A0A3BD"/>
<path d="M353.306 618.245C349.299 619.56 345.171 620.475 340.982 620.976C335.843 621.855 334.317 621.821 332.342 621.916V621.441C332.985 621.631 333.318 621.75 333.318 621.845C333.318 621.94 332.913 621.845 332.247 621.845H330.82L332.247 621.417C334.103 620.871 335.629 620.62 340.768 619.693C344.89 618.801 349.089 618.316 353.306 618.245Z" fill="#A0A3BD"/>
<path d="M352.331 625.061C348.62 625.23 344.902 625.064 341.221 624.562C337.505 624.486 334.263 624.038 330.618 623.308C338.053 622.703 345.078 623.322 352.331 625.061Z" fill="#A0A3BD"/>
<path opacity="0.2" d="M236.136 445.472C237.386 447.074 238.96 448.395 240.755 449.348C242.551 450.302 244.528 450.867 246.557 451.006C250.806 451.509 255.104 451.429 259.332 450.768C286.573 447.752 315.431 444.973 342.1 438.489C307.58 440.413 271.109 439.771 236.588 441.695L236.231 444.64" fill="#A0A3BD"/>
<g opacity="0.2">
<path opacity="0.2" d="M271.704 494.046L291.164 569.434L289.808 497.229L271.704 494.046Z" fill="black"/>
</g>
<path d="M474.005 91.0789C480.201 93.4339 477.732 100.89 477.732 100.89C477.732 100.89 482.779 99.3209 485.185 102.9C487.591 106.479 479.147 107.719 480.468 108.975C481.789 110.231 487.434 112.994 483.393 116.165C479.351 119.336 473.958 114.454 473.958 114.454C473.958 114.454 472.763 117.389 468.109 118.08C463.454 118.771 465.341 111 465.341 111C465.341 111 462.338 115.034 460.263 108.692C459.934 107.93 459.784 107.102 459.824 106.272C459.863 105.443 460.092 104.634 460.492 103.906C460.893 103.178 461.454 102.55 462.133 102.071C462.813 101.592 463.593 101.274 464.414 101.142C464.414 101.142 461.505 95.5839 464.005 94.2029C466.505 92.8209 471.175 97.3429 471.175 97.3429C471.175 97.3429 470.908 89.9019 474.005 91.0789Z" fill="#407BFF"/>
<path d="M474.005 91.0789C480.201 93.4339 477.732 100.89 477.732 100.89C477.732 100.89 482.779 99.3209 485.185 102.9C487.591 106.479 479.147 107.719 480.468 108.975C481.789 110.231 487.434 112.994 483.393 116.165C479.351 119.336 473.958 114.454 473.958 114.454C473.958 114.454 472.763 117.389 468.109 118.08C463.454 118.771 465.341 111 465.341 111C465.341 111 462.338 115.034 460.263 108.692C459.934 107.93 459.784 107.102 459.824 106.272C459.863 105.443 460.092 104.634 460.492 103.906C460.893 103.178 461.454 102.55 462.133 102.071C462.813 101.592 463.593 101.274 464.414 101.142C464.414 101.142 461.505 95.5839 464.005 94.2029C466.505 92.8209 471.175 97.3429 471.175 97.3429C471.175 97.3429 470.908 89.9019 474.005 91.0789Z" fill="#ACAAD1"/>
<path d="M517.027 122.867C518.19 125.693 514.92 127.231 514.92 127.231C514.92 127.231 517.043 128.408 516.602 130.371C516.162 132.333 513.064 129.884 513.08 130.732C513.096 131.579 513.945 134.358 511.602 133.997C509.259 133.636 509.165 130.308 509.165 130.308C508.627 130.439 508.066 130.434 507.53 130.295C506.995 130.155 506.503 129.884 506.099 129.507C504.385 128.173 507.592 126.368 507.592 126.368C507.592 126.368 505.297 126.65 506.759 123.934C506.912 123.583 507.143 123.272 507.434 123.023C507.725 122.774 508.07 122.594 508.441 122.497C508.812 122.4 509.2 122.389 509.576 122.464C509.952 122.539 510.306 122.698 510.611 122.93C510.611 122.93 511.555 120.183 512.813 120.591C514.071 120.999 514.024 123.997 514.024 123.997C514.024 123.997 516.429 121.454 517.027 122.867Z" fill="#407BFF"/>
<path d="M517.027 122.867C518.19 125.693 514.92 127.231 514.92 127.231C514.92 127.231 517.043 128.408 516.602 130.371C516.162 132.333 513.064 129.884 513.08 130.732C513.096 131.579 513.945 134.358 511.602 133.997C509.259 133.636 509.165 130.308 509.165 130.308C508.627 130.439 508.066 130.434 507.53 130.295C506.995 130.155 506.503 129.884 506.099 129.507C504.385 128.173 507.592 126.368 507.592 126.368C507.592 126.368 505.297 126.65 506.759 123.934C506.912 123.583 507.143 123.272 507.434 123.023C507.725 122.774 508.07 122.594 508.441 122.497C508.812 122.4 509.2 122.389 509.576 122.464C509.952 122.539 510.306 122.698 510.611 122.93C510.611 122.93 511.555 120.183 512.813 120.591C514.071 120.999 514.024 123.997 514.024 123.997C514.024 123.997 516.429 121.454 517.027 122.867Z" fill="#ACAAD1"/>
<path d="M483.031 149.632C479.76 152.631 476.034 148.91 476.034 148.91C476.034 148.91 475.468 152.411 472.59 152.772C469.713 153.133 471.505 147.701 470.342 148.157C469.178 148.612 465.829 151.108 465.153 147.733C464.477 144.358 469.005 142.599 469.005 142.599C468.547 141.936 468.268 141.165 468.194 140.363C468.119 139.56 468.253 138.752 468.581 138.016C469.556 135.033 473.675 138.487 473.675 138.487C473.675 138.487 472.103 135.488 476.584 136.147C477.134 136.186 477.668 136.347 478.147 136.619C478.626 136.891 479.037 137.267 479.351 137.719C479.665 138.171 479.873 138.688 479.96 139.231C480.048 139.774 480.011 140.33 479.855 140.857C479.855 140.857 484.069 140.857 484.147 142.694C484.226 144.53 480.075 146.022 480.075 146.022C480.075 146.022 484.666 148.141 483.031 149.632Z" fill="#407BFF"/>
<path d="M483.031 149.632C479.76 152.631 476.034 148.91 476.034 148.91C476.034 148.91 475.468 152.411 472.59 152.772C469.713 153.133 471.505 147.701 470.342 148.157C469.178 148.612 465.829 151.108 465.153 147.733C464.477 144.358 469.005 142.599 469.005 142.599C468.547 141.936 468.268 141.165 468.194 140.363C468.119 139.56 468.253 138.752 468.581 138.016C469.556 135.033 473.675 138.487 473.675 138.487C473.675 138.487 472.103 135.488 476.584 136.147C477.134 136.186 477.668 136.347 478.147 136.619C478.626 136.891 479.037 137.267 479.351 137.719C479.665 138.171 479.873 138.688 479.96 139.231C480.048 139.774 480.011 140.33 479.855 140.857C479.855 140.857 484.069 140.857 484.147 142.694C484.226 144.53 480.075 146.022 480.075 146.022C480.075 146.022 484.666 148.141 483.031 149.632Z" fill="#ACAAD1"/>
</svg>
